<svg id="svg" version="1.1" xmlns="http://www.w3.org/2000/svg" xmlns:xlink="http://www.w3.org/1999/xlink" width="400" height="238.81048387096774" viewBox="0, 0, 400,238.81048387096774"><g id="svgg"><path id="path0" d="M220.000 115.917 L 220.000 145.000 225.333 145.000 L 230.667 145.000 230.667 115.917 L 230.667 86.833 225.333 86.833 L 220.000 86.833 220.000 115.917 M182.000 89.183 C 181.129 89.258,180.117 89.394,179.750 89.484 C 179.383 89.573,178.558 89.771,177.917 89.924 C 177.275 90.076,176.600 90.261,176.417 90.334 C 176.233 90.407,175.596 90.637,175.000 90.844 C 174.404 91.051,173.842 91.275,173.750 91.340 C 173.658 91.406,173.403 91.515,173.182 91.583 C 171.385 92.135,167.472 95.142,165.149 97.757 C 163.793 99.283,160.667 104.507,160.667 105.247 C 160.667 105.312,160.562 105.603,160.434 105.891 C 158.827 109.523,157.885 119.839,158.811 123.667 C 158.911 124.079,159.148 125.129,159.337 126.000 C 159.527 126.871,159.799 127.921,159.942 128.333 C 161.701 133.406,164.639 137.709,168.421 140.750 C 168.877 141.117,169.287 141.459,169.333 141.510 C 169.845 142.082,173.499 143.931,175.381 144.569 C 177.523 145.296,181.298 145.994,183.111 145.999 C 183.401 145.999,183.664 146.068,183.694 146.151 C 183.991 146.956,192.045 154.988,193.732 156.161 C 193.925 156.295,194.233 156.544,194.417 156.714 C 194.600 156.883,195.012 157.182,195.333 157.377 C 195.654 157.573,195.954 157.774,196.000 157.825 C 196.672 158.567,200.945 160.279,203.583 160.862 C 205.875 161.369,212.815 161.018,214.708 160.300 L 215.167 160.126 215.167 155.477 L 215.167 150.827 214.708 150.937 C 214.456 150.997,214.128 151.108,213.979 151.184 C 213.043 151.663,209.532 151.881,207.306 151.599 C 202.530 150.994,199.997 149.675,195.627 145.515 L 194.329 144.279 195.422 143.897 C 196.442 143.540,199.313 142.209,199.500 142.007 C 199.546 141.957,199.775 141.818,200.008 141.698 C 201.196 141.088,204.622 138.077,205.750 136.651 C 206.427 135.796,208.500 132.605,208.500 132.418 C 208.500 132.388,208.753 131.813,209.063 131.140 C 210.150 128.774,210.624 127.309,211.087 124.872 C 211.214 124.206,211.352 123.605,211.394 123.537 C 212.009 122.541,211.970 112.376,211.342 110.250 C 211.261 109.975,211.148 109.450,211.091 109.083 C 211.033 108.717,210.920 108.229,210.839 108.000 C 210.758 107.771,210.526 107.021,210.324 106.333 C 209.945 105.043,209.237 103.353,208.648 102.333 C 208.463 102.013,208.270 101.619,208.220 101.458 C 208.169 101.298,208.062 101.167,207.981 101.167 C 207.900 101.167,207.833 101.069,207.833 100.951 C 207.833 100.832,207.721 100.588,207.584 100.409 C 207.447 100.230,206.973 99.579,206.531 98.962 C 205.419 97.410,202.907 94.839,201.601 93.917 C 201.342 93.733,201.044 93.505,200.940 93.409 C 200.314 92.835,197.287 91.237,195.917 90.757 C 195.458 90.596,194.933 90.399,194.750 90.318 C 192.387 89.277,186.729 88.773,182.000 89.183 M189.325 98.858 C 195.254 100.426,198.604 104.628,200.197 112.500 C 200.498 113.983,200.499 121.400,200.200 122.667 C 200.081 123.171,199.903 123.921,199.806 124.333 C 198.511 129.812,195.197 133.949,190.833 135.534 C 186.738 137.022,181.439 136.742,178.167 134.866 C 176.619 133.978,174.677 132.251,173.412 130.636 C 168.682 124.598,168.606 111.749,173.260 104.750 C 176.650 99.652,183.218 97.243,189.325 98.858 M255.181 105.014 C 253.377 105.248,251.866 105.678,250.225 106.427 C 249.936 106.559,249.656 106.667,249.603 106.667 C 249.470 106.667,247.332 107.981,247.072 108.222 C 246.956 108.329,246.618 108.604,246.319 108.833 C 244.058 110.567,240.333 115.739,240.333 117.145 C 240.333 117.251,240.263 117.468,240.176 117.627 C 238.170 121.328,238.576 131.214,240.942 136.278 C 242.186 138.939,246.256 143.333,247.477 143.333 C 247.566 143.333,247.664 143.390,247.694 143.458 C 247.769 143.627,249.042 144.236,250.167 144.641 C 256.362 146.875,265.498 146.268,271.625 143.215 L 272.500 142.779 272.500 138.834 C 272.500 134.558,272.495 134.530,271.852 134.984 C 266.228 138.949,255.955 139.158,252.242 135.383 C 251.249 134.372,250.641 133.325,249.812 131.193 C 249.728 130.978,249.613 130.247,249.555 129.568 L 249.451 128.333 262.517 128.334 L 275.583 128.334 275.478 123.709 C 275.419 121.094,275.290 118.793,275.183 118.417 C 275.079 118.050,274.911 117.450,274.812 117.083 C 273.458 112.109,270.535 108.388,266.543 106.559 C 264.813 105.766,264.747 105.742,263.500 105.429 C 261.269 104.869,257.682 104.690,255.181 105.014 M295.333 105.019 C 294.554 105.097,293.617 105.234,293.250 105.324 C 292.883 105.414,292.321 105.531,292.000 105.585 C 291.002 105.751,289.264 106.188,288.961 106.348 C 288.801 106.431,288.539 106.500,288.377 106.501 C 288.216 106.502,287.869 106.614,287.606 106.751 C 287.343 106.888,287.043 107.000,286.939 107.000 C 286.835 107.000,286.188 107.281,285.500 107.625 L 284.250 108.250 284.205 112.458 C 284.181 114.773,284.204 116.667,284.256 116.667 C 284.309 116.667,284.779 116.381,285.301 116.031 C 286.435 115.271,287.986 114.462,289.199 113.996 C 289.686 113.810,290.233 113.594,290.417 113.516 C 292.966 112.436,298.228 112.019,300.424 112.723 C 302.952 113.534,304.667 116.000,304.667 118.825 L 304.667 119.623 303.958 119.728 C 302.591 119.930,297.187 120.658,294.583 120.990 C 284.108 122.327,279.116 127.889,280.588 136.583 C 280.869 138.237,280.858 138.207,281.752 140.043 C 285.640 148.037,299.181 147.961,304.170 139.917 L 304.583 139.250 304.629 142.125 L 304.675 145.000 309.754 145.000 L 314.833 145.000 314.832 132.542 C 314.830 116.608,314.474 113.527,312.312 110.756 C 310.206 108.056,308.877 107.021,306.121 105.929 C 303.712 104.976,299.407 104.612,295.333 105.019 M375.500 105.084 C 372.417 105.614,370.395 106.624,368.330 108.667 C 367.541 109.446,366.751 110.299,366.573 110.563 C 366.395 110.826,366.119 111.239,365.959 111.479 C 365.677 111.903,365.668 111.820,365.668 108.792 L 365.667 105.667 360.417 105.667 L 355.167 105.667 355.167 125.333 L 355.167 145.000 360.417 145.000 L 365.667 145.000 365.668 133.292 C 365.669 119.790,365.662 119.885,366.895 117.352 C 369.468 112.066,377.306 111.496,379.746 116.417 C 380.947 118.837,381.000 119.554,381.000 133.287 L 381.000 145.000 386.257 145.000 L 391.514 145.000 391.460 130.792 C 391.399 115.013,391.440 115.622,390.220 112.305 C 388.121 106.598,382.557 103.869,375.500 105.084 M344.000 105.099 C 340.864 105.668,338.521 107.337,336.705 110.294 C 336.409 110.777,336.164 111.227,336.161 111.294 C 336.158 111.362,336.010 111.717,335.833 112.083 L 335.511 112.750 335.506 109.208 L 335.500 105.667 330.167 105.667 L 324.833 105.667 324.833 125.333 L 324.833 145.000 330.159 145.000 L 335.485 145.000 335.543 133.625 C 335.606 121.480,335.588 121.762,336.430 119.891 C 336.560 119.603,336.667 119.320,336.667 119.262 C 336.667 118.577,338.921 115.921,340.074 115.249 C 342.235 113.989,346.022 113.909,348.261 115.076 C 348.530 115.217,348.806 115.332,348.875 115.332 C 348.944 115.333,349.000 113.133,349.000 110.443 L 349.000 105.554 348.542 105.340 C 348.085 105.128,344.803 104.954,344.000 105.099 M260.358 112.603 C 263.460 113.397,265.243 115.913,265.455 119.792 L 265.548 121.500 257.501 121.500 L 249.454 121.500 249.559 120.610 C 249.887 117.820,252.262 114.342,254.671 113.124 C 256.261 112.320,258.466 112.118,260.358 112.603 M304.249 132.064 C 303.756 133.594,302.576 135.469,301.694 136.127 C 301.358 136.377,301.046 136.630,301.000 136.689 C 300.954 136.748,300.579 136.961,300.167 137.162 C 299.754 137.363,299.294 137.591,299.144 137.670 C 297.971 138.284,294.565 138.179,293.084 137.483 C 289.586 135.838,289.383 131.168,292.696 128.578 C 293.412 128.019,295.424 127.417,297.417 127.166 C 298.150 127.074,299.650 126.881,300.750 126.737 C 301.850 126.594,303.162 126.426,303.667 126.363 L 304.583 126.250 304.630 128.495 C 304.672 130.523,304.635 130.868,304.249 132.064 " stroke="none" fill="#fbfbfb" fill-rule="evenodd"></path><path id="path1" d="M101.230 59.042 C 100.657 60.015,100.619 60.098,100.911 59.750 C 101.250 59.347,101.542 58.833,101.432 58.833 C 101.389 58.833,101.298 58.927,101.230 59.042 M84.958 63.762 C 84.335 64.100,84.373 64.241,85.000 63.917 C 85.275 63.774,85.500 63.623,85.500 63.579 C 85.500 63.472,85.482 63.478,84.958 63.762 M97.795 64.875 C 97.430 65.437,97.103 66.107,97.286 65.917 C 97.520 65.674,98.208 64.500,98.116 64.500 C 98.073 64.500,97.929 64.669,97.795 64.875 M79.708 66.853 C 79.140 67.216,78.956 67.461,79.458 67.185 C 79.841 66.975,80.440 66.511,80.333 66.508 C 80.287 66.507,80.006 66.662,79.708 66.853 M95.064 69.542 C 94.490 70.515,94.452 70.598,94.745 70.250 C 95.083 69.847,95.375 69.333,95.266 69.333 C 95.222 69.333,95.131 69.427,95.064 69.542 M93.569 72.042 C 92.795 73.337,92.797 73.333,92.891 73.333 C 92.934 73.333,93.175 72.977,93.428 72.542 C 93.681 72.106,93.997 71.581,94.130 71.375 C 94.263 71.169,94.331 71.000,94.281 71.000 C 94.231 71.000,93.911 71.469,93.569 72.042 M93.500 74.138 C 93.500 74.213,93.701 74.457,93.946 74.679 L 94.393 75.083 94.018 74.542 C 93.641 73.995,93.500 73.885,93.500 74.138 M93.167 74.417 C 93.167 74.554,93.100 74.667,93.019 74.667 C 92.938 74.667,92.829 74.835,92.776 75.042 C 92.683 75.404,92.691 75.402,93.003 75.000 C 93.306 74.609,93.437 74.167,93.250 74.167 C 93.204 74.167,93.167 74.279,93.167 74.417 M92.176 76.104 C 91.980 76.437,91.847 76.736,91.880 76.769 C 91.914 76.802,92.109 76.530,92.314 76.165 C 92.781 75.334,92.662 75.282,92.176 76.104 M89.735 78.542 C 88.407 80.764,88.462 80.667,88.553 80.667 C 88.593 80.667,89.060 79.935,89.591 79.042 C 90.122 78.148,90.665 77.248,90.797 77.042 C 90.930 76.835,90.997 76.667,90.946 76.667 C 90.896 76.667,90.351 77.510,89.735 78.542 M96.015 76.786 C 96.106 77.057,99.989 81.167,100.154 81.167 C 100.225 81.167,99.900 80.771,99.433 80.287 C 98.966 79.804,97.990 78.772,97.265 77.996 C 96.540 77.219,95.977 76.675,96.015 76.786 M90.402 79.208 C 89.684 80.411,89.524 80.756,89.951 80.179 C 90.355 79.634,91.192 78.167,91.099 78.167 C 91.058 78.167,90.744 78.635,90.402 79.208 M99.801 81.923 C 99.594 82.329,99.572 82.498,99.717 82.552 C 99.846 82.599,99.781 82.755,99.532 82.995 C 99.228 83.287,99.169 83.475,99.250 83.891 C 99.307 84.180,99.293 84.342,99.218 84.250 C 99.052 84.045,98.500 83.986,98.500 84.173 C 98.500 84.248,98.625 84.434,98.777 84.587 C 98.984 84.794,99.003 84.895,98.852 84.988 C 98.582 85.155,98.668 87.417,98.944 87.417 C 99.051 87.417,99.189 87.467,99.251 87.529 C 99.312 87.590,99.153 87.618,98.898 87.589 C 98.489 87.545,98.467 87.564,98.718 87.747 C 98.971 87.932,98.975 87.980,98.752 88.165 C 98.613 88.280,98.500 88.577,98.500 88.826 C 98.500 89.400,98.367 89.530,97.988 89.327 C 97.782 89.217,97.649 89.227,97.568 89.359 C 97.502 89.465,97.520 89.507,97.607 89.453 C 98.010 89.204,98.201 89.616,97.928 90.145 C 97.780 90.432,97.716 90.664,97.787 90.661 C 98.122 90.645,99.549 87.343,99.334 87.084 C 99.151 86.864,99.164 86.843,99.418 86.940 C 99.668 87.036,99.703 86.984,99.632 86.616 C 99.586 86.374,99.610 86.215,99.686 86.262 C 99.762 86.309,99.865 86.138,99.917 85.882 C 99.968 85.626,100.078 85.204,100.162 84.945 C 100.256 84.655,100.254 84.313,100.157 84.059 C 99.958 83.535,99.960 83.455,100.167 83.583 C 100.271 83.648,100.333 83.283,100.333 82.603 C 100.333 81.336,100.192 81.156,99.801 81.923 M87.399 82.271 C 87.114 82.580,86.942 82.833,87.018 82.833 C 87.094 82.833,87.107 82.961,87.048 83.117 C 86.979 83.295,86.914 83.326,86.872 83.199 C 86.835 83.088,86.740 83.038,86.660 83.088 C 86.580 83.137,86.557 83.287,86.608 83.422 C 86.660 83.557,86.615 83.667,86.508 83.667 C 86.401 83.667,86.367 83.753,86.433 83.859 C 86.508 83.981,86.478 84.006,86.350 83.927 C 86.130 83.791,85.453 84.455,85.588 84.675 C 85.633 84.747,85.195 84.857,84.615 84.919 C 83.591 85.029,82.734 85.606,83.311 85.798 C 83.532 85.872,83.570 86.667,83.352 86.667 C 83.270 86.667,83.155 86.929,83.094 87.250 C 83.014 87.680,82.899 87.833,82.659 87.833 C 82.480 87.833,82.333 87.907,82.333 87.997 C 82.333 88.087,82.146 88.207,81.917 88.265 C 81.688 88.322,81.500 88.436,81.500 88.518 C 81.500 88.600,81.329 88.667,81.119 88.667 C 80.651 88.667,80.167 89.422,80.167 90.151 C 80.167 90.495,80.085 90.667,79.920 90.667 C 79.784 90.667,79.626 90.854,79.568 91.083 C 79.511 91.313,79.359 91.500,79.232 91.500 C 79.104 91.500,79.000 91.613,79.000 91.752 C 79.000 92.866,77.760 93.919,77.257 93.232 C 77.077 92.986,77.037 92.987,76.775 93.249 C 76.594 93.430,76.543 93.606,76.637 93.726 C 76.867 94.020,77.014 95.000,76.829 95.000 C 76.740 95.000,76.667 95.110,76.667 95.245 C 76.667 95.397,76.764 95.452,76.923 95.391 C 77.509 95.166,77.034 95.779,76.270 96.235 C 75.580 96.646,75.406 96.688,75.129 96.515 C 74.948 96.402,74.758 96.353,74.706 96.405 C 74.654 96.457,74.691 96.500,74.788 96.500 C 74.885 96.500,75.009 96.617,75.064 96.759 C 75.159 97.007,74.304 97.471,73.946 97.365 C 73.870 97.343,73.856 97.402,73.914 97.496 C 73.972 97.590,73.945 97.667,73.853 97.667 C 73.492 97.667,73.500 97.322,73.864 97.175 C 74.248 97.021,74.247 97.020,73.819 97.044 C 73.386 97.068,73.217 97.474,73.549 97.691 C 73.775 97.839,72.368 98.707,72.135 98.564 C 72.022 98.494,71.995 98.524,72.067 98.641 C 72.133 98.747,72.107 98.833,72.010 98.833 C 71.743 98.833,71.798 98.503,72.083 98.394 C 72.425 98.263,72.398 98.076,72.034 98.048 C 71.758 98.028,71.699 98.157,71.629 98.944 C 71.607 99.185,70.839 99.573,70.500 99.515 C 70.314 99.483,70.298 99.521,70.438 99.665 C 70.579 99.810,71.417 99.380,73.820 97.929 C 75.577 96.868,77.051 96.000,77.096 96.000 C 77.141 96.000,77.680 95.662,78.295 95.250 C 78.910 94.837,79.508 94.500,79.623 94.500 C 79.739 94.500,79.833 94.433,79.833 94.351 C 79.833 94.270,80.024 94.155,80.257 94.097 C 80.490 94.038,80.634 93.916,80.578 93.824 C 80.521 93.733,80.537 93.669,80.613 93.682 C 80.933 93.738,81.167 93.654,81.167 93.484 C 81.167 93.384,81.322 93.084,81.511 92.818 C 81.738 92.500,81.820 92.205,81.750 91.958 C 81.670 91.674,81.685 91.642,81.813 91.829 C 82.001 92.101,82.016 92.091,82.299 91.500 C 82.409 91.271,82.910 90.408,83.412 89.583 C 83.914 88.758,84.524 87.708,84.767 87.250 C 85.010 86.792,85.275 86.392,85.355 86.361 C 85.435 86.331,85.500 86.237,85.500 86.152 C 85.500 86.068,86.064 85.051,86.754 83.893 C 88.110 81.617,88.192 81.410,87.399 82.271 M104.000 83.322 C 104.000 84.050,103.918 84.856,103.819 85.114 C 103.719 85.372,103.611 85.712,103.579 85.869 C 103.548 86.026,103.414 86.401,103.282 86.702 C 103.150 87.003,102.836 87.737,102.583 88.333 C 101.943 89.844,100.298 93.072,100.135 93.139 C 100.061 93.169,100.000 93.285,100.000 93.396 C 100.000 93.604,97.585 97.340,97.350 97.496 C 97.276 97.544,97.134 97.741,97.032 97.934 C 96.256 99.409,92.047 104.012,89.352 106.333 C 88.767 106.837,88.100 107.419,87.870 107.625 C 87.640 107.831,87.406 108.001,87.351 108.003 C 87.295 108.004,86.987 108.228,86.667 108.501 C 85.866 109.181,85.875 109.175,84.750 109.904 C 84.200 110.261,83.427 110.766,83.033 111.026 C 82.639 111.287,82.284 111.500,82.245 111.500 C 82.205 111.500,81.778 111.750,81.295 112.055 C 80.173 112.763,75.461 115.039,74.333 115.417 C 74.287 115.432,74.025 115.539,73.750 115.654 C 73.475 115.769,73.137 115.887,73.000 115.916 C 72.862 115.945,72.337 116.119,71.833 116.302 C 71.329 116.485,70.429 116.781,69.833 116.960 L 68.750 117.285 68.704 119.458 L 68.657 121.631 69.287 122.287 C 70.742 123.802,72.405 126.558,72.785 128.083 C 73.319 130.226,73.332 133.003,72.811 133.575 C 72.732 133.662,72.667 133.835,72.667 133.959 C 72.667 134.565,71.158 137.175,70.329 138.004 C 70.148 138.185,70.000 138.403,70.000 138.489 C 70.000 138.574,69.849 138.692,69.664 138.751 C 69.480 138.809,69.372 138.927,69.424 139.012 C 69.477 139.097,69.446 139.167,69.355 139.167 C 68.661 139.167,68.667 139.071,68.667 151.762 L 68.667 163.833 69.050 163.833 C 69.261 163.833,69.534 163.740,69.658 163.625 C 69.837 163.458,69.859 163.458,69.765 163.625 C 69.700 163.740,69.734 163.833,69.842 163.833 C 69.966 163.833,69.998 163.683,69.932 163.417 C 69.852 163.101,69.892 163.000,70.097 163.000 C 70.245 163.000,70.629 162.738,70.950 162.417 C 71.271 162.096,71.601 161.833,71.683 161.833 C 71.766 161.833,71.833 161.751,71.833 161.651 C 71.833 161.551,71.983 161.279,72.167 161.045 C 72.350 160.812,72.500 160.707,72.500 160.811 C 72.500 161.130,72.745 161.021,72.919 160.626 C 73.009 160.420,73.294 160.151,73.552 160.028 C 73.810 159.905,74.069 159.682,74.126 159.531 C 74.271 159.154,75.000 158.500,75.274 158.500 C 75.398 158.500,75.500 158.420,75.500 158.321 C 75.500 158.019,75.956 157.667,76.363 157.655 C 76.728 157.644,76.731 157.635,76.417 157.500 C 76.132 157.378,76.126 157.355,76.375 157.345 C 76.535 157.339,76.667 157.221,76.667 157.083 C 76.667 156.935,76.820 156.833,77.043 156.833 C 77.482 156.833,77.951 156.243,77.619 156.108 C 77.508 156.063,77.559 156.020,77.733 156.013 C 77.907 156.006,78.369 155.738,78.761 155.417 C 79.152 155.096,79.546 154.833,79.635 154.833 C 79.725 154.833,79.841 154.721,79.894 154.583 C 79.946 154.446,80.130 154.333,80.302 154.333 C 80.474 154.333,80.751 154.183,80.917 154.000 C 81.083 153.817,81.324 153.667,81.452 153.667 C 81.581 153.667,81.640 153.592,81.583 153.500 C 81.483 153.338,81.701 153.266,82.125 153.321 C 82.240 153.336,82.333 153.232,82.333 153.091 C 82.333 152.949,82.446 152.833,82.583 152.833 C 82.721 152.833,82.833 152.748,82.833 152.645 C 82.833 152.347,83.502 151.844,83.763 151.945 C 83.906 151.999,84.000 151.932,84.000 151.775 C 84.000 151.631,84.326 151.323,84.723 151.090 C 85.121 150.857,85.532 150.479,85.636 150.250 C 85.766 149.966,85.960 149.833,86.246 149.833 C 86.509 149.833,86.667 149.739,86.667 149.583 C 86.667 149.446,86.779 149.333,86.917 149.333 C 87.054 149.333,87.167 149.260,87.167 149.170 C 87.167 149.080,87.354 148.959,87.583 148.902 C 87.813 148.844,88.000 148.732,88.000 148.653 C 88.000 148.574,88.241 148.384,88.535 148.232 C 88.830 148.079,89.207 147.782,89.373 147.571 C 89.539 147.359,89.842 147.134,90.046 147.069 C 90.509 146.923,91.000 146.373,91.000 146.000 C 91.000 145.722,91.524 145.000,91.726 145.000 C 92.339 145.000,92.721 143.818,92.208 143.506 C 91.971 143.362,92.000 143.348,92.366 143.430 C 92.763 143.520,92.831 143.471,92.949 143.015 C 93.023 142.731,93.157 142.480,93.247 142.458 C 93.511 142.391,94.333 141.469,94.333 141.238 C 94.333 140.992,95.603 139.667,95.840 139.667 C 95.928 139.667,96.000 139.554,96.000 139.417 C 96.000 139.279,95.869 139.166,95.708 139.166 C 95.520 139.166,95.621 139.041,95.993 138.814 C 96.554 138.472,96.431 138.000,95.780 138.000 C 95.693 138.000,95.661 137.669,95.707 137.260 C 95.791 136.513,96.124 136.002,96.530 135.997 C 96.695 135.996,96.689 135.956,96.505 135.840 C 96.291 135.705,96.294 135.671,96.523 135.583 C 96.719 135.508,96.819 135.128,96.910 134.116 C 97.141 131.551,97.173 131.290,97.279 131.120 C 97.337 131.025,97.404 130.791,97.428 130.599 C 97.530 129.773,97.692 129.097,97.868 128.769 C 97.972 128.575,98.044 128.379,98.028 128.333 C 97.929 128.035,98.819 125.716,99.525 124.435 C 100.876 121.984,101.817 120.709,103.549 118.980 C 104.688 117.842,106.762 116.092,106.861 116.183 C 106.892 116.212,107.087 116.088,107.296 115.909 C 107.505 115.730,108.180 115.311,108.796 114.977 C 109.412 114.644,110.273 114.178,110.708 113.941 C 111.144 113.703,111.500 113.541,111.500 113.580 C 111.500 113.619,111.894 113.468,112.375 113.244 C 112.856 113.020,113.381 112.836,113.542 112.835 C 113.702 112.834,113.833 112.771,113.833 112.694 C 113.833 112.618,113.927 112.550,114.042 112.543 C 114.156 112.536,114.662 112.419,115.167 112.282 C 117.481 111.656,122.499 111.634,125.333 112.237 C 125.471 112.267,125.902 112.347,126.292 112.417 C 126.681 112.486,127.000 112.601,127.000 112.673 C 127.000 112.745,127.131 112.783,127.292 112.757 C 127.452 112.731,127.733 112.791,127.917 112.890 C 128.100 112.990,128.305 113.055,128.372 113.037 C 128.439 113.018,128.926 113.167,129.455 113.369 C 129.984 113.571,130.485 113.717,130.568 113.693 C 130.651 113.669,130.781 113.747,130.857 113.866 C 130.970 114.044,130.995 114.044,130.997 113.865 C 130.999 113.745,131.065 113.687,131.145 113.737 C 131.225 113.786,131.461 113.678,131.671 113.497 C 131.887 113.309,132.292 113.167,132.609 113.167 C 132.916 113.167,133.167 113.092,133.167 113.000 C 133.167 112.908,133.289 112.833,133.439 112.833 C 133.589 112.833,133.876 112.656,134.077 112.440 C 134.339 112.157,134.708 112.012,135.388 111.928 C 135.908 111.863,136.333 111.740,136.333 111.655 C 136.333 111.570,136.390 111.509,136.458 111.520 C 136.879 111.586,137.142 111.453,137.242 111.125 C 137.314 110.887,137.388 110.828,137.444 110.965 C 137.509 111.125,137.590 111.133,137.754 110.997 C 137.875 110.896,138.153 110.794,138.370 110.771 C 138.587 110.748,138.836 110.687,138.924 110.636 C 139.012 110.585,139.365 110.493,139.708 110.431 C 140.052 110.369,140.333 110.252,140.333 110.172 C 140.333 110.092,140.601 109.937,140.928 109.829 C 141.256 109.721,141.564 109.528,141.613 109.400 C 141.662 109.272,141.810 109.167,141.941 109.167 C 142.073 109.167,142.346 109.011,142.549 108.821 C 142.751 108.632,143.254 108.308,143.667 108.102 C 144.889 107.493,145.576 107.094,145.699 106.921 C 145.763 106.832,145.867 106.811,145.930 106.874 C 145.993 106.937,146.190 106.804,146.368 106.578 C 146.545 106.352,146.842 106.167,147.027 106.167 C 147.213 106.167,147.555 106.017,147.788 105.833 C 148.021 105.650,148.333 105.498,148.481 105.494 C 149.162 105.480,149.643 104.768,149.258 104.343 C 149.095 104.163,149.068 103.996,149.173 103.830 C 149.295 103.635,149.329 103.665,149.331 103.968 C 149.332 104.216,149.402 104.311,149.525 104.234 C 149.631 104.169,149.811 104.244,149.926 104.401 C 150.059 104.583,150.174 104.622,150.244 104.510 C 150.304 104.413,150.274 104.333,150.177 104.333 C 150.079 104.333,150.000 104.148,150.000 103.922 C 150.000 103.609,149.934 103.536,149.727 103.615 C 149.540 103.687,149.479 103.647,149.534 103.485 C 149.577 103.356,149.793 103.249,150.015 103.247 L 150.417 103.244 150.460 92.622 L 150.502 82.000 127.251 82.000 L 104.000 82.000 104.000 83.322 M88.238 82.958 C 87.985 83.394,87.669 83.938,87.536 84.167 L 87.294 84.583 87.605 84.209 C 87.969 83.771,88.888 82.167,88.775 82.167 C 88.733 82.167,88.491 82.523,88.238 82.958 M97.883 83.198 C 97.937 83.352,97.909 83.502,97.822 83.532 C 97.734 83.561,97.615 84.091,97.557 84.709 C 97.499 85.327,97.396 85.833,97.328 85.833 C 97.260 85.833,97.171 86.058,97.131 86.333 C 97.071 86.743,97.117 86.833,97.382 86.833 C 97.675 86.833,97.696 86.919,97.606 87.742 C 97.504 88.685,97.834 89.399,98.202 89.031 C 98.539 88.694,98.449 83.618,98.100 83.250 C 97.848 82.984,97.804 82.974,97.883 83.198 M71.090 84.156 C 71.027 84.258,71.083 84.291,71.228 84.235 C 71.379 84.178,71.501 84.259,71.545 84.446 C 71.608 84.717,71.614 84.716,71.600 84.430 C 71.581 84.068,71.253 83.892,71.090 84.156 M86.595 85.813 C 86.268 86.353,86.000 86.859,86.001 86.938 C 86.001 87.018,86.159 86.821,86.352 86.500 C 86.544 86.179,86.850 85.673,87.031 85.375 C 87.212 85.077,87.322 84.833,87.276 84.833 C 87.229 84.833,86.923 85.274,86.595 85.813 M99.802 85.154 C 99.830 85.161,99.793 85.260,99.721 85.375 C 99.648 85.490,99.587 85.633,99.586 85.694 C 99.584 85.756,99.515 85.868,99.432 85.944 C 99.343 86.025,99.330 85.996,99.400 85.875 C 99.470 85.754,99.429 85.666,99.302 85.664 C 99.143 85.662,99.152 85.617,99.333 85.500 C 99.500 85.392,99.514 85.338,99.375 85.336 C 99.260 85.334,99.167 85.265,99.167 85.181 C 99.167 85.057,99.375 85.048,99.802 85.154 M70.167 86.385 C 69.623 87.046,69.300 87.500,69.372 87.500 C 69.475 87.500,70.703 85.980,70.642 85.928 C 70.610 85.900,70.396 86.106,70.167 86.385 M67.833 87.500 C 67.638 87.775,67.515 88.000,67.561 88.000 C 67.606 88.000,67.804 87.775,68.000 87.500 C 68.196 87.225,68.319 87.000,68.273 87.000 C 68.227 87.000,68.029 87.225,67.833 87.500 M85.047 88.458 C 84.987 88.619,84.727 89.096,84.469 89.518 C 84.211 89.941,84.000 90.354,84.000 90.435 C 84.001 90.604,85.045 88.901,85.213 88.458 C 85.273 88.298,85.285 88.167,85.240 88.167 C 85.194 88.167,85.107 88.298,85.047 88.458 M83.500 88.510 C 83.500 88.607,83.587 88.633,83.692 88.567 C 83.813 88.493,83.840 88.522,83.764 88.644 C 83.698 88.751,83.574 88.796,83.488 88.743 C 83.403 88.690,83.332 88.745,83.331 88.865 C 83.329 89.028,83.289 89.022,83.175 88.841 C 83.091 88.708,83.059 88.539,83.104 88.466 C 83.224 88.273,83.500 88.303,83.500 88.510 M67.167 90.333 C 66.971 90.608,66.848 90.833,66.894 90.833 C 66.940 90.833,67.138 90.608,67.333 90.333 C 67.529 90.058,67.652 89.833,67.606 89.833 C 67.560 89.833,67.362 90.058,67.167 90.333 M97.206 91.375 L 97.007 91.917 97.333 91.500 C 97.680 91.056,97.748 90.833,97.537 90.833 C 97.465 90.833,97.316 91.077,97.206 91.375 M65.230 91.208 C 64.657 92.182,64.619 92.265,64.911 91.917 C 65.250 91.513,65.542 91.000,65.432 91.000 C 65.389 91.000,65.298 91.094,65.230 91.208 M82.774 92.483 C 82.440 93.024,82.167 93.527,82.167 93.599 C 82.167 93.731,82.955 92.540,83.321 91.855 C 83.708 91.134,83.362 91.530,82.774 92.483 M96.254 92.850 C 95.918 93.317,95.606 93.823,95.559 93.975 C 95.504 94.155,95.547 94.136,95.685 93.919 C 95.800 93.736,96.012 93.461,96.156 93.306 C 96.468 92.969,97.051 92.000,96.942 92.000 C 96.899 92.000,96.590 92.382,96.254 92.850 M65.256 93.098 C 65.100 93.335,65.002 93.558,65.037 93.593 C 65.072 93.628,65.232 93.434,65.393 93.162 C 65.752 92.553,65.645 92.504,65.256 93.098 M52.980 93.875 C 52.871 94.081,52.673 94.438,52.540 94.667 C 52.308 95.066,52.310 95.070,52.578 94.750 C 52.911 94.355,53.377 93.500,53.260 93.500 C 53.215 93.500,53.089 93.669,52.980 93.875 M94.827 94.843 C 94.627 95.123,94.491 95.380,94.525 95.414 C 94.559 95.448,94.756 95.219,94.962 94.905 C 95.426 94.196,95.321 94.148,94.827 94.843 M62.750 95.167 C 62.608 95.442,62.529 95.667,62.575 95.667 C 62.621 95.667,62.774 95.442,62.917 95.167 C 63.059 94.892,63.138 94.667,63.092 94.667 C 63.046 94.667,62.892 94.892,62.750 95.167 M74.804 95.250 C 74.696 95.749,74.748 95.974,74.929 95.793 C 74.982 95.740,74.999 95.484,74.968 95.224 L 74.911 94.750 74.804 95.250 M63.709 95.542 C 63.473 95.839,63.142 96.500,63.228 96.500 C 63.268 96.500,63.455 96.237,63.645 95.917 C 63.989 95.334,64.020 95.149,63.709 95.542 M92.536 97.583 C 91.598 98.638,90.871 99.500,90.921 99.500 C 91.077 99.500,93.035 97.352,93.998 96.125 C 94.750 95.166,94.179 95.736,92.536 97.583 M77.458 96.929 C 77.206 97.065,77.000 97.212,77.000 97.255 C 77.000 97.416,77.263 97.315,77.667 97.000 C 78.162 96.613,78.088 96.587,77.458 96.929 M61.019 98.169 C 60.813 98.534,60.680 98.833,60.723 98.833 C 60.836 98.833,61.525 97.636,61.453 97.564 C 61.420 97.531,61.224 97.803,61.019 98.169 M75.375 98.184 C 74.894 98.465,74.500 98.733,74.500 98.780 C 74.500 98.872,75.982 98.048,76.242 97.811 C 76.524 97.553,76.268 97.664,75.375 98.184 M62.180 98.141 C 61.908 98.650,61.964 98.792,62.267 98.360 C 62.414 98.150,62.495 97.939,62.447 97.892 C 62.399 97.844,62.279 97.956,62.180 98.141 M49.583 99.667 C 49.441 99.942,49.362 100.167,49.408 100.167 C 49.454 100.167,49.608 99.942,49.750 99.667 C 49.892 99.392,49.971 99.167,49.925 99.167 C 49.879 99.167,49.726 99.392,49.583 99.667 M61.265 99.976 C 61.081 100.274,60.819 101.076,60.958 100.917 C 61.142 100.706,61.516 99.833,61.423 99.833 C 61.384 99.833,61.313 99.898,61.265 99.976 M69.580 100.273 C 68.687 100.866,68.453 101.110,69.146 100.727 C 69.455 100.556,69.849 100.343,70.021 100.252 C 70.193 100.162,70.333 100.030,70.333 99.960 C 70.333 99.779,70.314 99.787,69.580 100.273 M48.583 101.333 C 48.441 101.608,48.362 101.833,48.408 101.833 C 48.454 101.833,48.608 101.608,48.750 101.333 C 48.892 101.058,48.971 100.833,48.925 100.833 C 48.879 100.833,48.726 101.058,48.583 101.333 M67.122 101.737 C 66.208 102.289,66.130 102.449,67.000 101.988 C 67.934 101.493,67.903 101.514,67.818 101.430 C 67.780 101.391,67.467 101.529,67.122 101.737 M88.158 102.118 C 87.842 102.458,87.733 102.627,87.917 102.494 C 88.391 102.152,89.008 101.500,88.858 101.500 C 88.789 101.500,88.474 101.778,88.158 102.118 M66.867 103.238 C 66.093 103.786,65.984 103.942,66.638 103.568 C 66.943 103.393,67.271 103.156,67.367 103.042 C 67.613 102.747,67.497 102.793,66.867 103.238 M61.932 104.844 C 60.065 105.976,59.413 106.297,59.309 106.134 C 59.207 105.972,59.171 105.990,59.169 106.208 C 59.168 106.369,59.237 106.500,59.324 106.500 C 59.506 106.500,64.500 103.515,64.500 103.406 C 64.500 103.286,64.506 103.283,61.932 104.844 M63.704 105.149 C 62.387 105.951,62.135 106.206,63.292 105.567 C 64.138 105.100,65.004 104.505,64.833 104.510 C 64.787 104.511,64.280 104.798,63.704 105.149 M45.634 106.375 C 45.503 106.581,45.228 107.050,45.022 107.417 C 44.581 108.201,45.062 107.590,45.634 106.639 C 46.041 105.964,46.040 105.734,45.634 106.375 M61.627 106.382 C 61.009 106.746,60.846 107.052,61.165 107.249 C 61.256 107.305,61.289 107.245,61.238 107.112 C 61.180 106.961,61.365 106.738,61.740 106.506 C 62.066 106.305,62.333 106.108,62.333 106.070 C 62.333 105.969,62.312 105.978,61.627 106.382 M80.384 108.599 L 79.917 109.031 80.458 108.671 C 80.955 108.341,81.116 108.167,80.926 108.167 C 80.885 108.167,80.641 108.361,80.384 108.599 M57.487 110.958 C 57.480 111.302,57.456 111.696,57.434 111.833 C 57.412 111.971,57.447 112.308,57.511 112.583 C 57.589 112.920,57.634 112.633,57.647 111.708 C 57.658 110.952,57.629 110.333,57.583 110.333 C 57.538 110.333,57.494 110.615,57.487 110.958 M76.996 110.892 C 75.541 111.905,75.420 112.008,76.132 111.630 C 76.763 111.294,78.053 110.330,77.833 110.357 C 77.787 110.363,77.411 110.604,76.996 110.892 M48.623 112.396 C 47.823 112.888,47.599 113.120,48.250 112.784 C 48.772 112.514,49.477 112.011,49.333 112.011 C 49.288 112.010,48.968 112.184,48.623 112.396 M71.333 113.667 C 70.990 113.777,70.975 113.803,71.250 113.814 C 71.433 113.822,71.696 113.756,71.833 113.667 C 72.125 113.478,71.923 113.478,71.333 113.667 M68.833 114.042 C 68.833 114.110,69.096 114.167,69.417 114.167 C 69.737 114.167,70.000 114.110,70.000 114.042 C 70.000 113.973,69.737 113.917,69.417 113.917 C 69.096 113.917,68.833 113.973,68.833 114.042 M57.839 115.064 C 57.828 115.359,58.238 116.586,58.381 116.685 C 58.567 116.814,58.084 118.279,57.892 118.167 C 57.814 118.121,57.727 118.440,57.699 118.876 L 57.648 119.668 56.965 119.558 C 56.325 119.456,56.287 119.472,56.375 119.808 C 56.427 120.005,56.389 120.215,56.292 120.276 C 56.194 120.336,56.164 120.307,56.223 120.210 C 56.283 120.114,56.219 119.992,56.082 119.939 C 55.747 119.811,55.762 119.868,56.290 120.743 C 56.712 121.442,57.167 121.743,57.167 121.323 C 57.167 121.226,57.093 121.193,57.002 121.249 C 56.904 121.309,56.882 121.235,56.947 121.065 C 57.027 120.855,56.998 120.815,56.836 120.915 C 56.689 121.006,56.655 120.987,56.734 120.859 C 56.799 120.753,56.915 120.667,56.990 120.667 C 57.180 120.667,57.342 121.351,57.204 121.571 C 57.142 121.669,57.113 121.878,57.138 122.034 C 57.164 122.190,57.060 122.508,56.906 122.742 C 56.753 122.976,56.667 123.317,56.715 123.500 C 56.763 123.683,56.734 123.833,56.651 123.833 C 56.421 123.833,56.476 125.194,56.724 125.667 C 56.845 125.896,57.050 126.058,57.180 126.028 C 57.310 125.997,57.364 126.025,57.300 126.089 C 56.936 126.452,59.169 127.264,60.111 127.111 C 62.149 126.780,63.358 132.729,62.052 136.667 C 61.915 137.079,61.776 137.552,61.743 137.717 C 61.710 137.882,61.567 138.248,61.427 138.530 L 61.171 139.042 62.044 138.928 C 62.524 138.864,62.988 138.742,63.075 138.656 C 63.162 138.570,63.335 138.500,63.459 138.500 C 63.874 138.500,66.818 137.112,67.457 136.615 C 70.641 134.140,70.855 129.713,67.993 125.500 C 67.466 124.723,65.855 123.333,65.483 123.333 C 64.935 123.333,64.706 122.747,64.783 121.537 C 64.925 119.303,62.825 117.918,60.737 118.869 C 60.114 119.153,59.078 117.990,58.360 116.200 C 58.077 115.494,57.842 114.983,57.839 115.064 M54.336 116.097 C 54.337 116.273,54.415 116.529,54.508 116.667 C 54.631 116.849,54.647 116.782,54.565 116.417 C 54.428 115.804,54.332 115.671,54.336 116.097 M58.892 117.873 C 58.849 117.943,58.898 118.000,59.000 118.000 C 59.102 118.000,59.138 118.078,59.079 118.174 C 59.020 118.270,59.063 118.459,59.176 118.595 C 59.289 118.730,59.333 118.890,59.274 118.948 C 59.215 119.007,59.166 118.949,59.164 118.819 C 59.162 118.623,59.137 118.622,59.018 118.809 C 58.914 118.974,58.871 118.929,58.860 118.643 C 58.833 117.908,58.500 117.006,58.500 117.667 C 58.500 117.789,58.461 117.850,58.413 117.802 C 58.365 117.754,58.374 117.589,58.432 117.436 C 58.531 117.178,58.556 117.180,58.755 117.452 C 58.873 117.614,58.935 117.803,58.892 117.873 M39.006 117.656 C 38.781 118.075,38.788 118.210,39.029 118.129 C 39.136 118.094,39.236 117.900,39.251 117.699 C 39.284 117.249,39.229 117.239,39.006 117.656 M73.542 163.789 C 73.977 163.824,74.690 163.824,75.125 163.789 C 75.560 163.755,75.204 163.727,74.333 163.727 C 73.462 163.727,73.106 163.755,73.542 163.789 " stroke="none" fill="#802b30" fill-rule="evenodd"></path><path id="path2" d="M150.333 119.845 C 150.333 120.124,149.889 120.499,149.554 120.505 C 149.387 120.508,149.104 120.621,148.926 120.755 C 148.749 120.890,148.467 121.000,148.301 121.000 C 148.136 121.000,148.000 121.075,148.000 121.167 C 148.000 121.258,147.871 121.333,147.714 121.333 C 147.556 121.333,147.275 121.508,147.089 121.722 C 146.715 122.151,146.000 122.412,146.000 122.120 C 146.000 122.019,145.849 122.099,145.665 122.296 C 145.481 122.494,145.229 122.616,145.104 122.568 C 144.979 122.520,144.832 122.598,144.777 122.740 C 144.722 122.883,144.492 123.000,144.265 123.000 C 144.038 123.000,143.807 123.075,143.750 123.167 C 143.693 123.258,143.470 123.333,143.254 123.333 C 143.038 123.333,142.835 123.412,142.803 123.507 C 142.755 123.652,142.390 123.750,141.629 123.822 C 141.492 123.835,141.678 124.373,142.239 125.583 C 142.753 126.694,143.620 129.252,143.763 130.083 C 143.826 130.450,143.912 130.900,143.955 131.083 C 144.444 133.181,144.428 138.926,143.926 140.833 C 143.265 143.352,141.868 146.615,141.068 147.513 C 140.939 147.658,140.833 147.847,140.833 147.934 C 140.833 148.263,138.793 150.864,137.582 152.079 C 135.989 153.679,133.218 155.754,131.944 156.302 L 131.472 156.506 131.930 157.295 C 132.182 157.728,132.432 158.121,132.486 158.167 C 132.608 158.271,132.964 158.835,133.118 159.167 C 133.181 159.304,133.298 159.492,133.377 159.583 C 133.456 159.675,134.061 160.612,134.722 161.667 L 135.924 163.583 143.212 163.627 L 150.500 163.670 150.500 141.668 C 150.500 129.567,150.462 119.667,150.417 119.667 C 150.371 119.667,150.333 119.747,150.333 119.845 M107.118 155.500 C 107.066 155.699,106.891 155.833,106.682 155.833 C 106.443 155.833,106.333 155.939,106.333 156.172 C 106.333 156.358,106.212 156.557,106.063 156.614 C 105.915 156.671,105.419 157.100,104.961 157.567 C 104.504 158.034,104.075 158.402,104.007 158.384 C 103.940 158.366,103.494 158.718,103.016 159.167 C 102.537 159.617,102.000 160.030,101.823 160.087 C 101.645 160.143,101.498 160.278,101.495 160.386 C 101.488 160.622,100.896 161.072,100.375 161.237 C 100.169 161.302,100.000 161.462,100.000 161.591 C 100.000 161.721,99.813 161.874,99.583 161.932 C 99.354 161.989,99.166 162.122,99.165 162.226 C 99.163 162.331,98.901 162.586,98.581 162.793 C 98.262 163.000,98.000 163.244,98.000 163.335 C 98.000 163.426,97.883 163.500,97.740 163.500 C 97.597 163.500,97.527 163.575,97.583 163.667 C 97.651 163.776,102.474 163.833,111.510 163.833 C 125.858 163.833,125.778 163.837,125.125 163.195 C 125.010 163.082,124.354 162.149,123.667 161.120 L 122.417 159.250 120.167 159.133 C 117.089 158.973,113.024 158.110,112.183 157.437 C 112.054 157.334,111.904 157.262,111.849 157.277 C 111.795 157.292,111.435 157.160,111.051 156.985 C 110.666 156.810,110.273 156.667,110.176 156.667 C 110.079 156.667,110.000 156.598,110.000 156.513 C 110.000 156.429,109.775 156.310,109.500 156.250 C 109.225 156.190,109.000 156.059,109.000 155.959 C 109.000 155.859,108.950 155.827,108.890 155.888 C 108.829 155.949,108.540 155.816,108.247 155.592 C 107.829 155.274,107.668 155.229,107.499 155.385 C 107.332 155.539,107.311 155.537,107.402 155.375 C 107.467 155.260,107.449 155.167,107.363 155.167 C 107.276 155.167,107.166 155.317,107.118 155.500 " stroke="none" fill="#ca1d24" fill-rule="evenodd"></path><path id="path3" d="M149.607 103.282 C 149.405 103.484,149.500 103.702,149.750 103.606 C 149.931 103.537,150.000 103.625,150.000 103.922 C 150.000 104.148,150.079 104.333,150.177 104.333 C 150.274 104.333,150.304 104.413,150.244 104.510 C 150.174 104.622,150.059 104.583,149.926 104.401 C 149.811 104.244,149.631 104.169,149.525 104.234 C 149.402 104.311,149.332 104.216,149.331 103.968 C 149.329 103.665,149.295 103.635,149.173 103.830 C 149.068 103.996,149.095 104.163,149.258 104.343 C 149.643 104.768,149.162 105.480,148.481 105.494 C 148.333 105.498,148.021 105.650,147.788 105.833 C 147.555 106.017,147.213 106.167,147.027 106.167 C 146.842 106.167,146.545 106.352,146.368 106.578 C 146.190 106.804,145.993 106.937,145.930 106.874 C 145.867 106.811,145.763 106.832,145.699 106.921 C 145.576 107.094,144.889 107.493,143.667 108.102 C 143.254 108.308,142.751 108.632,142.549 108.821 C 142.346 109.011,142.073 109.167,141.941 109.167 C 141.810 109.167,141.662 109.272,141.613 109.400 C 141.564 109.528,141.256 109.721,140.928 109.829 C 140.601 109.937,140.333 110.092,140.333 110.172 C 140.333 110.252,140.052 110.369,139.708 110.431 C 139.365 110.493,139.012 110.585,138.924 110.636 C 138.836 110.687,138.587 110.748,138.370 110.771 C 138.153 110.794,137.875 110.896,137.754 110.997 C 137.590 111.133,137.509 111.125,137.444 110.965 C 137.388 110.828,137.314 110.887,137.242 111.125 C 137.142 111.453,136.879 111.586,136.458 111.520 C 136.390 111.509,136.333 111.570,136.333 111.655 C 136.333 111.740,135.908 111.863,135.388 111.928 C 134.708 112.012,134.339 112.157,134.077 112.440 C 133.876 112.656,133.589 112.833,133.439 112.833 C 133.289 112.833,133.167 112.908,133.167 113.000 C 133.167 113.092,132.916 113.167,132.609 113.167 C 132.292 113.167,131.887 113.309,131.671 113.497 C 131.461 113.678,131.231 113.790,131.159 113.746 C 131.087 113.701,130.990 113.759,130.944 113.874 C 130.877 114.040,130.857 114.041,130.846 113.875 C 130.832 113.642,130.500 113.583,130.500 113.814 C 130.500 113.895,131.000 114.210,131.611 114.514 C 134.181 115.792,137.071 118.120,138.951 120.428 C 139.741 121.398,140.833 122.992,140.833 123.174 C 140.833 123.262,140.908 123.333,141.000 123.333 C 141.092 123.333,141.169 123.427,141.172 123.542 C 141.175 123.656,141.297 123.900,141.444 124.083 C 141.661 124.354,141.693 124.362,141.611 124.125 C 141.556 123.965,141.564 123.828,141.630 123.822 C 142.394 123.749,142.755 123.652,142.803 123.507 C 142.835 123.412,143.038 123.333,143.254 123.333 C 143.470 123.333,143.693 123.258,143.750 123.167 C 143.807 123.075,144.038 123.000,144.265 123.000 C 144.492 123.000,144.722 122.883,144.777 122.740 C 144.832 122.598,144.979 122.520,145.104 122.568 C 145.229 122.616,145.481 122.494,145.665 122.296 C 145.849 122.099,146.000 122.019,146.000 122.120 C 146.000 122.412,146.715 122.151,147.089 121.722 C 147.275 121.508,147.556 121.333,147.714 121.333 C 147.871 121.333,148.000 121.258,148.000 121.167 C 148.000 121.075,148.136 121.000,148.301 121.000 C 148.467 121.000,148.749 120.890,148.926 120.755 C 149.104 120.621,149.387 120.508,149.554 120.505 C 150.424 120.490,150.413 120.593,150.463 111.590 L 150.509 103.240 150.112 103.207 C 149.893 103.189,149.666 103.223,149.607 103.282 M129.425 113.481 C 129.512 113.563,129.771 113.678,130.000 113.738 L 130.417 113.847 130.000 113.596 C 129.536 113.316,129.170 113.243,129.425 113.481 M119.667 120.547 C 119.621 120.595,119.208 120.676,118.750 120.728 C 118.292 120.780,117.654 120.894,117.333 120.982 C 115.908 121.372,115.406 121.541,115.258 121.682 C 115.171 121.765,114.994 121.833,114.865 121.833 C 113.511 121.833,108.000 126.899,108.000 128.144 C 108.000 128.233,107.940 128.331,107.866 128.361 C 107.699 128.430,106.956 130.253,106.553 131.583 C 106.124 133.000,106.127 137.631,106.557 139.083 C 106.954 140.419,107.956 142.717,108.375 143.250 C 108.447 143.342,108.655 143.597,108.836 143.817 C 109.018 144.037,109.167 144.278,109.167 144.351 C 109.167 144.525,111.642 147.000,111.816 147.000 C 111.889 147.000,112.129 147.149,112.349 147.330 C 112.570 147.512,112.825 147.719,112.917 147.790 C 113.088 147.922,115.152 148.933,115.750 149.177 C 117.767 149.999,122.552 150.234,124.583 149.609 C 126.299 149.082,127.068 148.784,127.526 148.470 C 127.769 148.303,128.017 148.167,128.077 148.167 C 128.379 148.167,130.382 146.641,131.344 145.678 C 135.804 141.212,136.918 134.233,134.059 128.667 C 133.800 128.162,133.493 127.651,133.377 127.530 C 133.262 127.409,133.167 127.240,133.167 127.156 C 133.167 126.697,129.469 123.000,129.010 123.000 C 128.926 123.000,128.758 122.906,128.637 122.792 C 128.271 122.446,126.093 121.427,125.333 121.247 C 125.287 121.236,124.927 121.134,124.531 121.021 C 123.370 120.688,119.861 120.347,119.667 120.547 M96.833 134.649 C 96.833 135.267,96.764 135.491,96.546 135.574 C 96.300 135.669,96.295 135.707,96.505 135.840 C 96.689 135.956,96.695 135.996,96.530 135.997 C 96.124 136.002,95.791 136.513,95.707 137.260 C 95.661 137.669,95.693 138.000,95.780 138.000 C 96.431 138.000,96.554 138.472,95.993 138.814 C 95.621 139.041,95.520 139.166,95.708 139.166 C 95.869 139.166,96.000 139.279,96.000 139.417 C 96.000 139.554,95.928 139.667,95.840 139.667 C 95.603 139.667,94.333 140.992,94.333 141.238 C 94.333 141.471,93.405 142.504,93.210 142.489 C 93.143 142.484,93.027 142.716,92.952 143.006 C 92.831 143.471,92.764 143.520,92.366 143.430 C 92.000 143.348,91.971 143.362,92.208 143.506 C 92.721 143.818,92.339 145.000,91.726 145.000 C 91.524 145.000,91.000 145.722,91.000 146.000 C 91.000 146.373,90.509 146.923,90.046 147.069 C 89.842 147.134,89.539 147.359,89.373 147.571 C 89.207 147.782,88.830 148.079,88.535 148.232 C 88.241 148.384,88.000 148.574,88.000 148.653 C 88.000 148.732,87.813 148.844,87.583 148.902 C 87.354 148.959,87.167 149.080,87.167 149.170 C 87.167 149.260,87.054 149.333,86.917 149.333 C 86.779 149.333,86.667 149.446,86.667 149.583 C 86.667 149.739,86.509 149.833,86.246 149.833 C 85.960 149.833,85.766 149.966,85.636 150.250 C 85.532 150.479,85.121 150.857,84.723 151.090 C 84.326 151.323,84.000 151.631,84.000 151.775 C 84.000 151.932,83.906 151.999,83.763 151.945 C 83.502 151.844,82.833 152.347,82.833 152.645 C 82.833 152.748,82.721 152.833,82.583 152.833 C 82.446 152.833,82.333 152.949,82.333 153.091 C 82.333 153.232,82.240 153.336,82.125 153.321 C 81.701 153.266,81.483 153.338,81.583 153.500 C 81.640 153.592,81.581 153.667,81.452 153.667 C 81.324 153.667,81.083 153.817,80.917 154.000 C 80.751 154.183,80.474 154.333,80.302 154.333 C 80.130 154.333,79.946 154.446,79.894 154.583 C 79.841 154.721,79.725 154.833,79.635 154.833 C 79.546 154.833,79.152 155.096,78.761 155.417 C 78.369 155.737,77.907 156.006,77.733 156.013 C 77.559 156.020,77.508 156.063,77.619 156.108 C 77.951 156.243,77.482 156.833,77.043 156.833 C 76.820 156.833,76.667 156.935,76.667 157.083 C 76.667 157.221,76.535 157.339,76.375 157.345 C 76.126 157.355,76.132 157.378,76.417 157.500 C 76.731 157.635,76.728 157.644,76.363 157.655 C 75.956 157.667,75.500 158.019,75.500 158.321 C 75.500 158.420,75.398 158.500,75.274 158.500 C 75.000 158.500,74.271 159.154,74.126 159.531 C 74.069 159.682,73.810 159.905,73.552 160.028 C 73.294 160.151,73.009 160.420,72.919 160.626 C 72.745 161.021,72.500 161.130,72.500 160.811 C 72.500 160.707,72.350 160.812,72.167 161.045 C 71.983 161.279,71.833 161.551,71.833 161.651 C 71.833 161.751,71.766 161.833,71.683 161.833 C 71.601 161.833,71.271 162.096,70.950 162.417 C 70.629 162.737,70.239 163.000,70.082 163.000 C 69.891 163.000,69.831 163.087,69.899 163.264 C 69.954 163.409,70.000 163.578,70.000 163.639 C 70.000 163.701,76.234 163.777,83.853 163.808 C 93.837 163.848,97.674 163.813,97.593 163.682 C 97.530 163.580,97.595 163.500,97.740 163.500 C 97.883 163.500,98.000 163.426,98.000 163.335 C 98.000 163.244,98.262 163.000,98.581 162.793 C 98.901 162.586,99.163 162.331,99.165 162.226 C 99.166 162.122,99.354 161.989,99.583 161.932 C 99.813 161.874,100.000 161.721,100.000 161.591 C 100.000 161.462,100.169 161.302,100.375 161.237 C 100.896 161.072,101.488 160.622,101.495 160.386 C 101.498 160.278,101.645 160.143,101.823 160.087 C 102.000 160.030,102.537 159.617,103.016 159.167 C 103.494 158.718,103.940 158.366,104.007 158.384 C 104.075 158.402,104.504 158.034,104.961 157.567 C 105.419 157.100,105.915 156.671,106.063 156.614 C 106.212 156.557,106.333 156.358,106.333 156.172 C 106.333 155.939,106.443 155.833,106.682 155.833 C 106.891 155.833,107.066 155.699,107.118 155.500 C 107.166 155.317,107.276 155.167,107.363 155.167 C 107.449 155.167,107.481 155.229,107.434 155.306 C 107.387 155.382,107.454 155.444,107.583 155.444 C 107.949 155.444,107.743 155.236,106.372 154.222 C 105.005 153.211,102.836 151.117,102.173 150.167 C 101.949 149.846,101.719 149.546,101.661 149.500 C 101.530 149.396,100.073 146.988,99.594 146.086 C 98.608 144.224,97.497 140.461,97.221 138.046 C 97.166 137.567,97.073 137.205,97.015 137.241 C 96.957 137.277,96.938 136.525,96.973 135.570 C 97.008 134.615,96.991 133.833,96.935 133.833 C 96.879 133.833,96.833 134.200,96.833 134.649 " stroke="none" fill="#ac242b" fill-rule="evenodd"></path><path id="path4" d="M104.642 52.326 C 104.216 52.594,103.823 52.767,103.767 52.712 C 103.712 52.656,103.667 52.687,103.667 52.779 C 103.667 52.871,103.273 53.159,102.792 53.418 C 102.310 53.677,101.073 54.400,100.042 55.024 C 99.010 55.647,98.167 56.119,98.167 56.072 C 98.167 56.025,98.009 56.134,97.816 56.314 C 97.623 56.494,97.229 56.736,96.941 56.853 C 96.653 56.969,96.379 57.106,96.333 57.157 C 96.287 57.208,96.025 57.371,95.750 57.519 C 95.475 57.666,94.261 58.390,93.052 59.126 C 91.843 59.863,90.812 60.423,90.760 60.371 C 90.709 60.320,90.667 60.365,90.667 60.472 C 90.667 60.579,90.603 60.667,90.525 60.667 C 90.447 60.667,89.927 60.937,89.369 61.269 C 88.812 61.600,88.302 61.856,88.238 61.838 C 88.173 61.820,88.075 61.873,88.019 61.957 C 87.825 62.245,86.611 62.985,86.472 62.899 C 86.396 62.852,86.333 62.877,86.333 62.955 C 86.333 63.125,85.031 63.912,82.500 65.270 C 82.179 65.442,81.879 65.623,81.833 65.671 C 81.641 65.872,80.833 66.333,80.833 66.242 C 80.833 66.187,80.716 66.260,80.572 66.404 C 80.238 66.738,78.082 68.000,77.846 68.000 C 77.747 68.000,77.667 68.075,77.667 68.167 C 77.667 68.258,77.590 68.333,77.496 68.333 C 77.402 68.333,76.465 68.856,75.413 69.495 C 74.361 70.135,73.500 70.619,73.500 70.572 C 73.500 70.525,73.336 70.640,73.135 70.827 C 72.935 71.014,72.704 71.167,72.624 71.167 C 72.543 71.167,71.263 71.898,69.780 72.792 C 68.297 73.685,66.858 74.529,66.583 74.666 C 66.308 74.804,66.046 74.954,66.000 75.000 C 65.954 75.046,65.617 75.233,65.250 75.416 C 64.883 75.599,64.482 75.845,64.359 75.962 C 64.236 76.079,63.936 76.278,63.693 76.405 C 63.433 76.540,62.874 77.261,62.340 78.151 C 61.840 78.985,61.379 79.667,61.317 79.667 C 61.254 79.667,61.152 79.868,61.090 80.115 C 61.028 80.361,60.833 80.767,60.656 81.016 C 60.478 81.264,60.333 81.510,60.333 81.561 C 60.333 81.743,58.133 85.251,57.985 85.306 C 57.901 85.336,57.832 85.486,57.830 85.639 C 57.828 85.792,57.679 86.104,57.500 86.333 C 57.321 86.563,57.172 86.817,57.170 86.898 C 57.168 86.980,57.035 87.154,56.875 87.286 C 56.715 87.417,56.678 87.476,56.794 87.417 C 56.911 87.359,56.367 88.364,55.586 89.653 C 54.805 90.941,54.167 92.071,54.167 92.164 C 54.167 92.257,54.092 92.333,54.000 92.333 C 53.908 92.333,53.833 92.418,53.833 92.522 C 53.833 92.733,51.546 96.597,51.240 96.903 C 51.132 97.011,50.986 97.283,50.916 97.508 C 50.846 97.733,50.742 97.954,50.685 98.000 C 50.628 98.046,50.365 98.496,50.102 99.000 C 49.838 99.504,49.532 99.992,49.420 100.083 C 49.308 100.175,49.223 100.287,49.231 100.333 C 49.245 100.417,48.494 101.738,47.622 103.163 C 47.368 103.577,47.095 104.067,47.015 104.250 C 46.934 104.433,46.148 105.774,45.268 107.230 C 44.387 108.685,43.667 109.946,43.667 110.031 C 43.667 110.116,43.592 110.140,43.500 110.083 C 43.408 110.027,43.333 110.106,43.333 110.260 C 43.333 110.523,41.976 112.938,40.996 114.417 C 40.753 114.783,40.202 115.741,39.770 116.544 C 39.036 117.912,39.012 118.255,39.693 117.667 C 39.852 117.529,40.342 117.233,40.782 117.009 C 41.223 116.784,41.790 116.461,42.042 116.289 C 42.294 116.118,42.501 116.039,42.503 116.114 C 42.504 116.189,42.560 116.166,42.628 116.063 C 42.829 115.755,46.833 113.400,46.833 113.589 C 46.833 113.632,46.986 113.514,47.173 113.327 C 47.359 113.141,47.584 113.033,47.673 113.087 C 47.761 113.142,47.833 113.114,47.833 113.025 C 47.833 112.889,49.412 111.909,51.833 110.541 C 52.154 110.360,52.695 110.046,53.036 109.843 C 53.899 109.328,53.935 109.400,53.913 111.601 C 53.885 114.518,55.370 120.000,56.189 120.000 C 56.279 120.000,56.299 120.087,56.234 120.192 C 56.164 120.306,56.188 120.340,56.292 120.276 C 56.389 120.215,56.427 120.005,56.375 119.808 C 56.287 119.472,56.325 119.456,56.965 119.558 L 57.648 119.668 57.699 118.915 C 57.727 118.500,57.825 118.148,57.917 118.132 C 58.154 118.091,58.561 116.809,58.377 116.685 C 58.022 116.446,57.458 113.531,57.454 111.917 C 57.451 110.753,57.741 107.886,57.918 107.329 C 57.971 107.163,58.042 106.889,58.076 106.722 C 58.111 106.554,58.222 106.079,58.325 105.667 C 58.427 105.254,58.550 104.731,58.598 104.505 C 58.647 104.279,58.776 103.986,58.885 103.855 C 58.994 103.723,59.060 103.571,59.031 103.516 C 58.941 103.345,59.175 102.333,59.305 102.333 C 59.373 102.333,59.442 102.166,59.457 101.961 C 59.473 101.757,59.560 101.438,59.652 101.253 C 59.744 101.068,60.009 100.437,60.241 99.851 C 60.473 99.265,61.073 98.098,61.575 97.258 C 62.076 96.417,62.535 95.603,62.594 95.449 C 62.653 95.295,62.768 95.210,62.849 95.260 C 62.930 95.310,62.952 95.235,62.897 95.093 C 62.839 94.942,62.908 94.794,63.065 94.734 C 63.212 94.678,63.297 94.576,63.255 94.508 C 63.213 94.440,63.344 94.205,63.547 93.987 C 63.751 93.770,63.907 93.552,63.896 93.504 C 63.852 93.316,64.041 93.006,64.156 93.077 C 64.223 93.118,64.278 93.061,64.278 92.949 C 64.278 92.663,65.665 90.500,65.848 90.500 C 65.932 90.500,65.984 90.444,65.964 90.375 C 65.907 90.176,66.819 88.833,67.012 88.833 C 67.108 88.833,67.143 88.763,67.090 88.678 C 67.038 88.593,67.145 88.417,67.329 88.288 C 67.514 88.159,67.624 88.013,67.575 87.963 C 67.525 87.914,67.758 87.583,68.093 87.228 C 68.428 86.874,68.699 86.546,68.696 86.500 C 68.686 86.357,70.162 84.854,70.755 84.402 C 71.722 83.664,72.045 84.393,71.167 85.333 C 70.892 85.628,70.667 85.901,70.667 85.942 C 70.667 86.155,69.014 87.960,68.906 87.864 C 68.837 87.801,68.828 87.834,68.886 87.937 C 68.945 88.040,68.859 88.279,68.694 88.468 C 68.354 88.861,68.158 89.128,67.024 90.750 C 66.576 91.392,66.052 92.085,65.860 92.292 C 65.669 92.498,65.549 92.667,65.595 92.667 C 65.641 92.667,65.597 92.819,65.498 93.005 C 65.398 93.191,65.246 93.299,65.160 93.246 C 65.074 93.193,65.048 93.266,65.103 93.408 C 65.158 93.550,65.119 93.667,65.018 93.667 C 64.916 93.667,64.833 93.779,64.833 93.917 C 64.833 94.054,64.758 94.167,64.667 94.167 C 64.575 94.167,64.500 94.236,64.500 94.321 C 64.500 94.577,63.306 96.500,63.147 96.500 C 63.066 96.500,63.016 96.556,63.036 96.625 C 63.055 96.694,62.540 97.837,61.890 99.167 C 60.345 102.327,60.229 102.593,60.188 103.071 C 60.176 103.202,60.073 103.409,59.958 103.530 C 59.844 103.651,59.739 103.900,59.726 104.083 C 59.703 104.415,59.598 105.002,59.407 105.875 C 59.274 106.484,58.941 106.644,63.521 103.897 C 67.465 101.531,68.281 101.084,68.542 101.140 C 68.610 101.155,68.667 101.097,68.667 101.013 C 68.667 100.928,69.078 100.602,69.580 100.288 C 70.083 99.973,70.441 99.663,70.376 99.598 C 70.311 99.533,70.471 99.518,70.733 99.566 C 70.994 99.613,71.161 99.605,71.104 99.549 C 71.047 99.492,71.507 99.143,72.125 98.774 C 72.744 98.405,73.543 97.892,73.900 97.635 C 74.258 97.377,74.647 97.167,74.765 97.167 C 75.117 97.167,75.188 96.879,74.906 96.597 C 74.596 96.287,74.710 96.254,75.147 96.526 C 75.401 96.685,75.602 96.633,76.270 96.235 C 77.034 95.779,77.509 95.166,76.923 95.391 C 76.764 95.452,76.667 95.397,76.667 95.245 C 76.667 95.110,76.740 95.000,76.829 95.000 C 77.014 95.000,76.867 94.020,76.637 93.726 C 76.543 93.606,76.594 93.430,76.775 93.249 C 77.037 92.987,77.077 92.986,77.257 93.232 C 77.760 93.919,79.000 92.866,79.000 91.752 C 79.000 91.613,79.104 91.500,79.232 91.500 C 79.359 91.500,79.511 91.313,79.568 91.083 C 79.626 90.854,79.784 90.667,79.920 90.667 C 80.085 90.667,80.167 90.495,80.167 90.151 C 80.167 89.422,80.651 88.667,81.119 88.667 C 81.329 88.667,81.500 88.600,81.500 88.518 C 81.500 88.436,81.688 88.322,81.917 88.265 C 82.146 88.207,82.333 88.087,82.333 87.997 C 82.333 87.907,82.480 87.833,82.659 87.833 C 82.899 87.833,83.014 87.680,83.094 87.250 C 83.155 86.929,83.270 86.667,83.352 86.667 C 83.570 86.667,83.532 85.872,83.311 85.798 C 82.734 85.606,83.591 85.029,84.615 84.919 C 85.195 84.857,85.633 84.747,85.588 84.675 C 85.453 84.455,86.130 83.791,86.350 83.927 C 86.478 84.006,86.508 83.981,86.433 83.859 C 86.367 83.753,86.401 83.667,86.508 83.667 C 86.615 83.667,86.660 83.557,86.608 83.422 C 86.557 83.287,86.586 83.133,86.674 83.079 C 86.762 83.025,86.836 83.079,86.838 83.198 C 86.843 83.388,87.229 82.888,87.249 82.667 C 87.272 82.398,88.136 81.356,88.250 81.459 C 88.325 81.527,88.337 81.496,88.276 81.390 C 88.125 81.126,89.482 78.803,89.707 78.942 C 89.813 79.007,89.836 78.972,89.765 78.857 C 89.697 78.747,90.156 77.826,90.822 76.733 C 91.470 75.672,92.000 74.750,92.000 74.683 C 92.000 74.617,92.135 74.417,92.301 74.240 C 92.467 74.062,92.607 73.855,92.613 73.779 C 92.620 73.704,93.196 72.691,93.893 71.529 C 94.591 70.367,95.294 69.192,95.456 68.917 C 95.618 68.642,95.806 68.392,95.875 68.361 C 95.944 68.331,96.000 68.218,96.000 68.110 C 96.000 68.003,96.825 66.535,97.833 64.848 C 98.842 63.162,99.667 61.718,99.667 61.641 C 99.667 61.563,99.742 61.500,99.833 61.500 C 99.925 61.500,100.000 61.387,100.000 61.250 C 100.000 61.112,100.079 61.000,100.177 61.000 C 100.274 61.000,100.314 60.936,100.266 60.859 C 100.218 60.781,100.307 60.572,100.464 60.394 C 100.621 60.216,100.765 59.991,100.783 59.894 C 100.829 59.649,103.029 56.107,103.213 55.981 C 103.295 55.925,103.348 55.850,103.332 55.815 C 103.271 55.680,103.726 54.833,103.860 54.833 C 103.937 54.833,103.991 54.777,103.980 54.708 C 103.933 54.412,104.021 54.207,104.340 53.865 C 104.527 53.664,104.638 53.500,104.588 53.500 C 104.459 53.500,105.343 52.110,105.567 51.961 C 106.125 51.588,105.295 51.916,104.642 52.326 M93.333 74.291 C 93.333 74.615,91.713 77.158,91.583 77.040 C 91.508 76.972,91.492 76.997,91.549 77.096 C 91.663 77.298,90.125 80.149,89.748 80.433 C 89.614 80.534,89.547 80.658,89.598 80.710 C 89.650 80.761,89.510 81.091,89.288 81.443 C 88.671 82.420,87.430 84.552,87.311 84.837 C 87.253 84.977,86.776 85.798,86.252 86.663 C 85.728 87.527,85.232 88.411,85.150 88.627 C 85.060 88.864,84.924 88.973,84.808 88.901 C 84.689 88.828,84.660 88.855,84.733 88.972 C 84.845 89.154,84.625 89.571,82.546 93.124 C 81.705 94.561,80.054 96.000,79.247 96.000 C 79.185 96.000,78.917 96.155,78.651 96.345 C 78.384 96.534,78.167 96.647,78.167 96.595 C 78.167 96.543,78.014 96.653,77.827 96.840 C 77.487 97.180,76.694 97.578,76.458 97.527 C 76.390 97.512,76.333 97.568,76.333 97.652 C 76.333 97.823,73.652 99.424,73.458 99.369 C 73.390 99.349,73.333 99.408,73.333 99.500 C 73.333 99.592,73.221 99.667,73.083 99.667 C 72.946 99.667,72.833 99.742,72.833 99.833 C 72.833 99.925,72.753 100.000,72.655 100.000 C 72.557 100.000,72.154 100.222,71.760 100.493 C 71.365 100.765,70.995 100.940,70.938 100.882 C 70.880 100.825,70.833 100.865,70.833 100.972 C 70.833 101.079,70.721 101.167,70.583 101.167 C 70.446 101.167,70.333 101.254,70.333 101.361 C 70.333 101.468,70.283 101.505,70.222 101.444 C 70.161 101.383,69.992 101.436,69.847 101.562 C 69.295 102.043,61.459 106.661,61.331 106.582 C 60.376 105.991,61.822 107.795,64.349 110.345 C 68.051 114.080,68.629 114.375,71.013 113.746 C 71.492 113.620,71.929 113.526,71.984 113.537 C 72.214 113.583,75.347 111.992,76.500 111.243 C 77.188 110.796,77.806 110.446,77.875 110.465 C 77.944 110.484,78.000 110.413,78.000 110.306 C 78.000 110.199,78.049 110.160,78.108 110.219 C 78.168 110.279,78.355 110.167,78.525 109.971 C 78.694 109.776,78.833 109.670,78.833 109.736 C 78.833 109.803,78.943 109.758,79.078 109.637 C 79.212 109.516,79.418 109.342,79.536 109.250 C 79.654 109.158,80.000 108.876,80.306 108.624 C 80.611 108.371,80.930 108.207,81.014 108.259 C 81.098 108.311,81.167 108.252,81.167 108.129 C 81.167 108.006,81.373 107.783,81.625 107.634 C 81.877 107.485,82.271 107.202,82.500 107.005 C 82.729 106.808,83.086 106.501,83.293 106.323 C 83.500 106.145,83.736 106.000,83.817 106.000 C 83.898 106.000,84.012 105.877,84.069 105.726 C 84.127 105.576,84.217 105.495,84.270 105.548 C 84.322 105.600,84.601 105.386,84.890 105.072 C 85.178 104.757,85.462 104.500,85.520 104.500 C 85.627 104.500,86.702 103.526,87.925 102.321 C 88.296 101.955,88.665 101.714,88.743 101.786 C 88.822 101.858,88.845 101.842,88.794 101.750 C 88.707 101.593,89.088 101.108,89.222 101.205 C 89.298 101.259,90.886 99.653,90.991 99.417 C 91.031 99.325,91.793 98.425,92.682 97.417 C 94.362 95.513,94.963 94.751,96.078 93.113 C 96.441 92.580,96.841 92.085,96.967 92.015 C 97.093 91.944,97.188 91.837,97.179 91.776 C 97.141 91.545,97.374 90.833,97.487 90.833 C 97.753 90.833,98.193 89.619,97.976 89.485 C 97.860 89.414,97.694 89.399,97.607 89.453 C 97.520 89.507,97.502 89.465,97.568 89.359 C 97.649 89.227,97.782 89.217,97.988 89.327 C 98.367 89.530,98.500 89.400,98.500 88.826 C 98.500 88.577,98.613 88.280,98.752 88.165 C 98.975 87.980,98.971 87.932,98.718 87.747 C 98.467 87.564,98.489 87.545,98.898 87.589 C 99.153 87.618,99.312 87.590,99.251 87.529 C 99.189 87.467,99.051 87.417,98.944 87.417 C 98.668 87.417,98.582 85.155,98.852 84.988 C 99.003 84.895,98.984 84.794,98.777 84.587 C 98.625 84.434,98.500 84.248,98.500 84.173 C 98.500 83.986,99.052 84.045,99.218 84.250 C 99.293 84.342,99.307 84.180,99.250 83.891 C 99.169 83.475,99.228 83.287,99.532 82.995 C 99.796 82.741,99.851 82.601,99.707 82.548 C 99.515 82.478,99.898 81.501,100.167 81.379 C 100.212 81.358,99.370 80.429,98.296 79.315 C 97.221 78.201,96.388 77.212,96.446 77.119 C 96.504 77.025,96.484 76.989,96.401 77.038 C 96.318 77.087,95.837 76.667,95.333 76.104 C 94.264 74.910,93.333 74.067,93.333 74.291 M98.388 86.229 C 98.359 88.940,98.255 89.397,97.776 88.919 C 97.566 88.709,97.529 88.451,97.606 87.742 C 97.696 86.919,97.675 86.833,97.382 86.833 C 97.117 86.833,97.071 86.743,97.131 86.333 C 97.171 86.058,97.260 85.833,97.328 85.833 C 97.396 85.833,97.499 85.327,97.557 84.709 C 97.615 84.091,97.734 83.561,97.822 83.532 C 97.909 83.502,97.937 83.352,97.883 83.198 C 97.804 82.974,97.848 82.984,98.100 83.250 C 98.386 83.551,98.414 83.836,98.388 86.229 M99.167 85.181 C 99.167 85.265,99.260 85.334,99.375 85.336 C 99.514 85.338,99.500 85.392,99.333 85.500 C 99.152 85.617,99.143 85.662,99.302 85.664 C 99.429 85.666,99.470 85.754,99.400 85.875 C 99.330 85.996,99.343 86.025,99.432 85.944 C 99.515 85.868,99.584 85.756,99.586 85.694 C 99.587 85.633,99.648 85.490,99.721 85.375 C 99.793 85.260,99.830 85.161,99.802 85.154 C 99.375 85.048,99.167 85.057,99.167 85.181 M83.104 88.466 C 83.059 88.539,83.091 88.708,83.175 88.841 C 83.270 88.992,83.329 89.008,83.331 88.885 C 83.332 88.775,83.485 88.715,83.671 88.751 C 83.859 88.787,83.965 88.745,83.910 88.655 C 83.855 88.567,83.740 88.538,83.655 88.590 C 83.570 88.643,83.500 88.607,83.500 88.510 C 83.500 88.303,83.224 88.273,83.104 88.466 M74.929 95.793 C 74.748 95.974,74.696 95.749,74.804 95.250 L 74.911 94.750 74.968 95.224 C 74.999 95.484,74.982 95.740,74.929 95.793 M73.864 97.175 C 73.652 97.261,73.525 97.406,73.582 97.499 C 73.640 97.591,73.612 97.667,73.520 97.667 C 73.125 97.667,73.418 97.066,73.825 97.043 C 74.250 97.020,74.250 97.020,73.864 97.175 M72.333 98.202 C 72.333 98.274,72.254 98.333,72.157 98.333 C 72.060 98.333,72.034 98.427,72.100 98.542 C 72.166 98.656,72.159 98.695,72.085 98.628 C 72.010 98.560,71.848 98.635,71.724 98.794 C 71.525 99.049,71.517 99.031,71.655 98.642 C 71.741 98.399,71.771 98.160,71.721 98.109 C 71.670 98.059,71.787 98.030,71.981 98.044 C 72.175 98.059,72.333 98.130,72.333 98.202 M58.443 117.407 C 58.379 117.576,58.365 117.754,58.413 117.802 C 58.461 117.850,58.500 117.789,58.500 117.667 C 58.500 117.006,58.833 117.908,58.860 118.643 C 58.871 118.929,58.914 118.974,59.018 118.809 C 59.137 118.622,59.162 118.623,59.164 118.819 C 59.166 118.949,59.215 119.007,59.274 118.948 C 59.333 118.890,59.289 118.730,59.176 118.595 C 59.063 118.459,59.020 118.270,59.079 118.174 C 59.138 118.078,59.111 118.000,59.019 118.000 C 58.928 118.000,58.882 117.848,58.918 117.662 C 58.953 117.476,58.918 117.364,58.839 117.413 C 58.760 117.462,58.665 117.412,58.628 117.301 C 58.588 117.180,58.514 117.222,58.443 117.407 M56.734 120.859 C 56.655 120.987,56.689 121.006,56.836 120.915 C 56.998 120.815,57.027 120.855,56.947 121.065 C 56.873 121.257,56.900 121.312,57.030 121.231 C 57.164 121.149,57.186 121.210,57.102 121.431 C 57.019 121.649,57.035 121.696,57.151 121.580 C 57.339 121.395,57.211 120.667,56.990 120.667 C 56.915 120.667,56.799 120.753,56.734 120.859 " stroke="none" fill="#602c33" fill-rule="evenodd"></path></g></svg>